<svg xmlns="http://www.w3.org/2000/svg" viewBox="0 0 44 44" width="44" height="44" fill="none" stroke="#3B2010" stroke-width="1.6" stroke-linecap="round" stroke-linejoin="round">
  <!-- Wings -->
  <path d="M22 18 Q14 14 13 8 Q18 10 22 16" fill="rgba(232,160,32,0.25)" stroke="#C47D0A" stroke-width="1.2"/>
  <path d="M22 18 Q30 14 31 8 Q26 10 22 16" fill="rgba(232,160,32,0.25)" stroke="#C47D0A" stroke-width="1.2"/>
  <path d="M22 20 Q12 17 11 11 Q17 14 22 19" fill="rgba(232,160,32,0.15)" stroke="#C47D0A" stroke-width="1"/>
  <path d="M22 20 Q32 17 33 11 Q27 14 22 19" fill="rgba(232,160,32,0.15)" stroke="#C47D0A" stroke-width="1"/>
  <!-- Body -->
  <ellipse cx="22" cy="29" rx="5.5" ry="7" fill="#E8A020" stroke="#C47D0A"/>
  <!-- Stripes -->
  <path d="M16.8 26.5 Q22 25 27.2 26.5" stroke="#3B2010" stroke-width="1.4" fill="none"/>
  <path d="M16.5 30 Q22 28.5 27.5 30" stroke="#3B2010" stroke-width="1.4" fill="none"/>
  <path d="M17.5 33.5 Q22 32 26.5 33.5" stroke="#3B2010" stroke-width="1.2" fill="none"/>
  <!-- Head -->
  <circle cx="22" cy="19" r="3.8" fill="#3B2010" stroke="#3B2010"/>
  <!-- Eyes -->
  <circle cx="20.5" cy="18.5" r="0.8" fill="white" stroke="none"/>
  <circle cx="23.5" cy="18.5" r="0.8" fill="white" stroke="none"/>
  <!-- Antennae -->
  <path d="M20.5 15.5 Q19 12 16.5 10.5" stroke="#3B2010" stroke-width="1.4"/>
  <path d="M23.5 15.5 Q25 12 27.5 10.5" stroke="#3B2010" stroke-width="1.4"/>
  <circle cx="16.5" cy="10.5" r="1.5" fill="#3B2010" stroke="none"/>
  <circle cx="27.5" cy="10.5" r="1.5" fill="#3B2010" stroke="none"/>
  <!-- Stinger -->
  <path d="M22 36 L22 39.5" stroke="#C47D0A" stroke-width="1.4"/>
</svg>
